<?xml version="1.0" encoding="utf-8"?>
<!-- Generator: Adobe Illustrator 24.1.2, SVG Export Plug-In . SVG Version: 6.00 Build 0)  -->
<svg version="1.1" id="Layer_1" xmlns="http://www.w3.org/2000/svg" xmlns:xlink="http://www.w3.org/1999/xlink" x="0px" y="0px"
	 viewBox="0 0 647 153" style="enable-background:new 0 0 647 153;" xml:space="preserve">
<style type="text/css">
	.st0{fill:#F2BD1D;}
	.st1{fill:#AFAFAF;}
	.st2{fill:#9134D8;}
	.st3{fill:#F24E29;}
	.st4{enable-background:new    ;}
	.st5{fill:#491A6C;}
</style>
<g id="Group_50" transform="translate(-54 -38.001)">
	<g id="Group_48" transform="translate(-132.262 -91.396)">
		<g id="Group_47">
			<g id="Group_46">
				<path id="Path_82" class="st0" d="M278.7,191.3c-2.6,2.6-16.5,9.7-22.7,12.1c-0.9,0.4-2-0.1-2.3-1c-0.2-0.4-0.2-0.9,0-1.3
					c2.5-6.2,9.6-20.1,12.1-22.7c3.6-3.5,9.3-3.5,12.9,0.1C282.2,182,282.2,187.7,278.7,191.3L278.7,191.3z"/>
				<path id="Path_83" class="st1" d="M204.6,197.2c0.8,0.1,1.6,0.4,2.2,1l52.1,52.1c0.6,0.6,1,1.4,1,2.2c0.1,0.9-0.4,1.9-1.2,2.3
					l-16.5,8.5l-34.7-10.4h-0.1c-0.5-0.2-1-0.4-1.4-0.7c-0.2-0.1-0.4-0.3-0.6-0.5c-0.2-0.2-0.3-0.4-0.5-0.6
					c-0.3-0.4-0.5-0.9-0.7-1.4l0,0v-0.1l-10.4-34.7l8.5-16.5C202.7,197.6,203.7,197.1,204.6,197.2z"/>
				<g id="Group_45">
					<path id="Path_84" class="st2" d="M205.4,251.7l41.1-41.1l43.5,13l15.5,4.6c2.1,0.6,3.3,2.8,2.7,4.9c-0.2,0.6-0.5,1.2-1,1.7
						l-34,34c-1.7,1.7-4.2,2.3-6.5,1.6l-24.3-7.3l-34.7-10.4h-0.1c-0.5-0.2-1-0.4-1.4-0.7C205.8,252,205.6,251.9,205.4,251.7z"/>
					<path id="Path_85" class="st3" d="M205.4,251.7l41.1-41.1l47.8,0.9c1.8,0,3.3,1.5,3.2,3.4c0,0.8-0.4,1.7-1,2.3l-33.2,33.2
						c-1.8,1.8-4.2,2.7-6.7,2.7l-45.1-0.8l-5.5-0.1C205.8,252,205.6,251.9,205.4,251.7z"/>
					<path id="Path_86" class="st2" d="M188.2,184.1l34-34.1c1.5-1.5,4-1.5,5.6,0c0.5,0.5,0.8,1,1,1.7l4.6,15.5l13,43.5l-41.1,41.1
						c-0.2-0.2-0.3-0.4-0.5-0.6c-0.3-0.4-0.5-0.9-0.7-1.4l0,0v-0.1L193.7,215l-7.3-24.3C185.8,188.3,186.5,185.8,188.2,184.1z"/>
					<path id="Path_87" class="st0" d="M206.8,193.8l33.2-33.2c1.3-1.3,3.4-1.3,4.7,0c0.6,0.6,0.9,1.4,1,2.3l0.9,47.8l-41.1,41.1
						c-0.2-0.2-0.3-0.4-0.5-0.6l-0.1-5.5l-0.8-45.1C204,198,205,195.6,206.8,193.8L206.8,193.8z"/>
				</g>
			</g>
		</g>
		<path id="Path_88" class="st2" d="M291.7,188.3c-0.4,0.8-1.4,1.1-2.2,0.7c-0.4-0.2-0.7-0.6-0.8-1l-4.1-13.8c0,0,0,0,0-0.1l0,0
			c-0.1-0.3-0.2-0.5-0.4-0.7c-0.1-0.2-0.3-0.4-0.5-0.5c-0.2-0.2-0.5-0.3-0.7-0.4c0,0,0,0-0.1,0l-13.8-4.1c-0.9-0.3-1.3-1.2-1.1-2
			c0.1-0.4,0.4-0.8,0.8-1l26.7-13.8l4.1-2.1l0,0l11.8-6.1c0.9-0.3,1.9,0.2,2.2,1.1c0.1,0.4,0.1,0.7,0,1.1l-6.1,11.8l0,0l-2.1,4.1
			L291.7,188.3z"/>
	</g>
	<g class="st4">
		<path class="st5" d="M256.6,155v-48.5l-10.7,0.1c-0.5-2-0.7-4.3-0.7-6.8s0.2-4.8,0.7-6.9l9.7,0.1c-0.4-3.1-0.6-5.8-0.6-8.3
			c0-6.2,2-11.3,6-15.4s9.2-6.1,15.7-6.1s12.8,1.2,19,3.5c0.1,2.2-0.3,4.5-1.1,7c-0.8,2.5-1.9,4.4-3.1,5.8c-3.9-1.2-7.1-1.7-9.5-1.7
			c-5.5,0-8.3,2.9-8.3,8.6c0,2.4,0.2,4.7,0.5,6.9l16.2-0.2c0.5,2.1,0.7,4.4,0.7,6.9s-0.2,4.7-0.7,6.8l-14.9-0.2V155
			c-2.8,0.5-5.9,0.7-9.3,0.7C262.8,155.7,259.6,155.5,256.6,155z"/>
	</g>
	<g class="st4">
		<path class="st2" d="M297.8,102.1c0.4-1.7,1.2-3.5,2.4-5.5c1.2-2,2.3-3.5,3.5-4.4c7.6,0.6,12.9,4.3,15.9,11.3
			c3.1-7.4,8.3-11.2,15.5-11.2c2.1,0,4.9,0.3,8.2,1c0,2.6-0.4,5.6-1.3,9.1s-2,6.5-3.5,9c-1.4-0.5-3.5-0.9-6.3-1.2
			c-4.1,0-7.5,2.1-10.2,6.3V155c-2.7,0.5-5.9,0.7-9.6,0.7s-6.9-0.2-9.7-0.7v-40.1C302.5,108.7,300.9,104.5,297.8,102.1z"/>
		<path class="st2" d="M397.1,130.3h-32.2c0.2,3.7,1.1,6.5,2.8,8.6c1.7,2,4.6,3.1,8.5,3.1c2,0,4.3-0.3,6.9-0.8
			c2.6-0.6,5.6-1.5,9-2.8c2.7,2.8,4.4,6.6,5.1,11.4c-6.6,4.7-14.7,7.1-24.3,7.1c-5.2,0-9.6-0.8-13.1-2.5s-6.4-4-8.6-6.9
			c-2.2-3-3.7-6.5-4.6-10.5s-1.4-8.5-1.4-13.3c0-4.6,0.6-8.9,1.7-12.8s2.8-7.3,5.1-10.2c2.3-2.9,5.2-5.2,8.7-6.8
			c3.5-1.7,7.6-2.5,12.3-2.5c4,0,7.5,0.7,10.7,2s5.9,3.1,8.1,5.5c2.2,2.3,3.9,5.1,5.1,8.3c1.2,3.2,1.8,6.7,1.8,10.5
			C398.7,122.6,398.2,126.9,397.1,130.3z M364.8,116.9H381v-1.4c0-3.1-0.7-5.6-2-7.6c-1.4-2-3.4-3-6.1-3c-2.6,0-4.6,0.9-5.8,2.8
			C365.8,109.7,365,112.7,364.8,116.9z"/>
		<path class="st2" d="M463.1,146.1c-0.4,1.7-1.2,3.6-2.4,5.6c-1.2,2-2.4,3.4-3.6,4.3c-5.8-0.2-10.3-2.4-13.4-6.6
			c-5.4,5-11.2,7.4-17.5,7.4c-3.2,0-6-0.5-8.4-1.6c-2.4-1-4.4-2.4-6.1-4.2c-1.7-1.7-2.9-3.7-3.7-6c-0.8-2.3-1.2-4.6-1.2-7.1
			c0-3.6,0.6-6.7,1.9-9.4s3-4.9,5.3-6.7c2.2-1.8,4.8-3.1,7.8-4s6.2-1.4,9.5-1.4c1.9,0,3.6,0,5,0.1c1.4,0,2.7,0.1,3.8,0.2v-2.4
			c0-5.3-2.7-7.9-8.1-7.9c-3.5,0-9.5,1.4-18.2,4.1c-2.5-2.9-4.1-7.4-4.7-13.5c2-0.7,4.2-1.4,6.6-2.1s4.9-1.2,7.5-1.7
			s5.1-0.9,7.6-1.2c2.5-0.3,4.7-0.4,6.7-0.4c2.9,0,5.7,0.4,8.4,1.2c2.7,0.8,5,2.1,7.1,3.8c2,1.7,3.6,3.9,4.8,6.6
			c1.2,2.7,1.8,5.9,1.8,9.6V138C459.6,141.8,460.8,144.5,463.1,146.1z M425.6,136.8c0,3.9,2.2,5.8,6.7,5.8c2.3,0,4.9-1.2,7.8-3.6
			v-9.9c-1.7-0.1-3-0.1-4.2-0.2c-1.1,0-2-0.1-2.5-0.1C428.2,128.8,425.6,131.5,425.6,136.8z"/>
		<path class="st2" d="M494.5,91.9c4,0,7.8,0.9,11.5,2.7v-30l0.7-0.9h7.6c4,0,6.7,0.9,8.2,2.6s2.3,4.8,2.3,9.1v61.8
			c0,4.4,1.2,7.4,3.5,8.9c-0.4,1.7-1.2,3.6-2.4,5.6s-2.4,3.4-3.6,4.3c-6-0.2-10.5-2.5-13.3-6.9c-5,5.2-10.9,7.8-17.9,7.8
			c-6.9,0-12.3-2.9-16-8.7s-5.6-13.7-5.6-23.8c0-5,0.6-9.4,1.9-13.5c1.3-4,3-7.4,5.3-10.2c2.2-2.8,4.9-5,7.9-6.5
			C487.7,92.7,491,91.9,494.5,91.9z M496.9,141.2c3.4,0,6.5-1.6,9.1-4.8v-27.2c-3.4-2-6.1-3-8.1-3c-5.7,0-8.5,6.2-8.5,18.6
			C489.4,135.8,491.9,141.2,496.9,141.2z"/>
	</g>
	<g class="st4">
		<path class="st5" d="M584.6,98.6c6,6,8.9,14.5,8.9,25.5c0,5-0.6,9.5-1.9,13.5c-1.3,4.1-3.1,7.5-5.6,10.4c-2.4,2.9-5.4,5-9,6.6
			c-3.6,1.5-7.6,2.3-12.3,2.3c-4.6,0-8.7-0.8-12.2-2.4c-3.5-1.6-6.5-3.8-8.9-6.6c-2.4-2.9-4.3-6.3-5.5-10.4c-1.2-4-1.9-8.5-1.9-13.4
			c0-5,0.6-9.4,1.9-13.5c1.2-4,3.1-7.5,5.5-10.4s5.4-5.1,8.9-6.7c3.6-1.6,7.6-2.4,12.3-2.4C573,91.3,579.6,93.7,584.6,98.6z
			 M564.8,105.8c-1.8,0-3.3,0.4-4.4,1.3c-1.1,0.9-2,2-2.7,3.5s-1.1,3.2-1.4,5.1c-0.3,1.9-0.4,4-0.4,6.3c0,3.5,0.1,6.5,0.3,9
			s0.6,4.6,1.2,6.3c0.6,1.7,1.5,3,2.6,3.8s2.6,1.2,4.4,1.2c3.7,0,6.1-1.6,7.2-4.8c1.2-3.2,1.8-7.7,1.8-13.6c0-6-0.6-10.5-1.8-13.6
			C570.7,107.3,568.3,105.8,564.8,105.8z"/>
		<path class="st5" d="M637.8,117.7c0-5.5-1.9-8.3-5.6-8.3c-1.3,0-2.7,0.4-4,1.2c-1.4,0.8-2.7,1.8-4.2,3V155
			c-1.4,0.2-2.9,0.4-4.6,0.6c-1.7,0.1-3.3,0.2-5.1,0.2c-1.7,0-3.4-0.1-5.1-0.2c-1.7-0.1-3.2-0.3-4.6-0.6V93.1l0.9-0.9h7.2
			c5.3,0,8.8,2.6,10.4,7.8c5.9-5.4,11.6-8.1,17.1-8.1c6.7,0,11.5,2.9,14.5,8.6c6.4-5.7,12.6-8.6,18.4-8.6c5.8,0,10.1,1.8,13,5.4
			s4.3,8.4,4.3,14.3v27.8c0,5.4,1,9.5,3.1,12.3c-3.1,2.8-6.9,4.2-11.3,4.2c-4.3,0-7.2-1-8.8-3s-2.4-5-2.4-9.1v-26.4
			c0-5.5-1.9-8.2-5.8-8.2c-2.4,0-5,1.4-7.9,4.3V155c-1.4,0.2-2.9,0.4-4.6,0.6c-1.7,0.1-3.3,0.2-5.1,0.2s-3.5-0.1-5.1-0.2
			c-1.7-0.1-3.2-0.3-4.7-0.6L637.8,117.7L637.8,117.7z"/>
	</g>
</g>
</svg>
